<svg width="24" height="24" viewBox="0 0 24 24" fill="none" xmlns="http://www.w3.org/2000/svg">
<path d="M7.5008 7.66938V6.69938C7.5008 4.44938 9.3108 2.23938 11.5608 2.02938C12.186 1.96795 12.8171 2.0381 13.4135 2.23531C14.0099 2.43252 14.5585 2.75242 15.0238 3.17442C15.4891 3.59642 15.8609 4.11117 16.1153 4.68555C16.3697 5.25992 16.501 5.88119 16.5008 6.50938V7.88938M9.0008 21.9994H15.0008C19.0208 21.9994 19.7408 20.3894 19.9508 18.4294L20.7008 12.4294C20.9708 9.98938 20.2708 7.99938 16.0008 7.99938H8.0008C3.7308 7.99938 3.0308 9.98938 3.3008 12.4294L4.0508 18.4294C4.2608 20.3894 4.9808 21.9994 9.0008 21.9994Z" stroke="black" stroke-width="2" stroke-miterlimit="10" stroke-linecap="round" stroke-linejoin="round"/>
<path d="M15.4941 12H15.5041M8.49414 12H8.50214" stroke="black" stroke-width="2" stroke-linecap="round" stroke-linejoin="round"/>
</svg>
